<svg width="15" height="15" viewBox="0 0 15 15" fill="none" xmlns="http://www.w3.org/2000/svg">
<path d="M2.3077 7.1875C2.3077 7.0149 2.43695 6.87504 2.59627 6.87504H12.4039C12.5633 6.87504 12.6924 7.0149 12.6924 7.1875C12.6924 7.36009 12.5633 7.49996 12.4039 7.49996H2.59627C2.43695 7.49996 2.3077 7.36009 2.3077 7.1875ZM2.59613 9.99997H8.07692C8.23623 9.99997 8.36534 9.8601 8.36534 9.68751C8.36534 9.51492 8.23623 9.37505 8.07692 9.37505H2.59613C2.43681 9.37505 2.30756 9.51492 2.30756 9.68751C2.30756 9.8601 2.43681 9.99997 2.59613 9.99997ZM2.59613 12.5H10.9615C11.1208 12.5 11.2501 12.3601 11.2501 12.1875C11.2501 12.0149 11.1208 11.8749 10.9615 11.8749H2.59613C2.43681 11.8749 2.30756 12.0149 2.30756 12.1875C2.30756 12.3601 2.43681 12.5 2.59613 12.5ZM15 4.06273V12.1876C14.9991 12.9331 14.7253 13.648 14.2387 14.1752C13.752 14.7024 13.0921 14.9991 12.4039 15H2.59624C1.90789 14.9991 1.24801 14.7024 0.761344 14.1752C0.27468 13.648 0.000842804 12.9331 0 12.1876V4.06273C0.000858817 3.31701 0.274684 2.60214 0.761344 2.07492C1.248 1.54771 1.90789 1.25105 2.59624 1.25013H3.46165L3.46151 0.937673C3.46151 0.602728 3.62655 0.293228 3.89423 0.125745C4.16205 -0.04173 4.49185 -0.04173 4.75964 0.125745C5.02732 0.29322 5.19237 0.602747 5.19237 0.937673V2.81273C5.19237 3.14753 5.02733 3.45702 4.75964 3.6245C4.49183 3.79198 4.16202 3.79198 3.89423 3.6245C3.62656 3.45703 3.46151 3.1475 3.46151 2.81273V1.8752H2.59624C2.06091 1.87582 1.54761 2.10656 1.16901 2.51655C0.790553 2.92671 0.577544 3.48278 0.576994 4.06272V12.1876C0.577567 12.7675 0.790556 13.3234 1.16901 13.7336C1.54761 14.1437 2.06091 14.3743 2.59624 14.3749H12.4039C12.9392 14.3743 13.4524 14.1437 13.831 13.7336C14.2094 13.3234 14.4225 12.7675 14.423 12.1876V4.99997H1.44237C1.28305 4.99997 1.1538 4.86011 1.1538 4.68751C1.1538 4.51492 1.28305 4.37505 1.44237 4.37505H14.423V4.06259C14.4224 3.48265 14.2094 2.92657 13.831 2.51642C13.4524 2.10643 12.9392 1.87567 12.4039 1.87507H11.5385V2.8126C11.5385 3.14739 11.3736 3.45689 11.1058 3.62437C10.8381 3.79185 10.5082 3.79185 10.2404 3.62437C9.97269 3.4569 9.80778 3.14737 9.80778 2.8126V1.87507H6.05767C5.89836 1.87507 5.76925 1.7352 5.76925 1.56261C5.76925 1.39002 5.89836 1.25 6.05767 1.25H9.80778V0.937535C9.80778 0.602589 9.97268 0.293089 10.2404 0.125606C10.5082 -0.0418687 10.8381 -0.0418687 11.1058 0.125606C11.3736 0.293081 11.5385 0.602609 11.5385 0.937535V1.25H12.4039C13.0921 1.25093 13.752 1.54757 14.2387 2.07479C14.7253 2.602 14.9992 3.31687 15 4.06259L15 4.06273ZM10.9615 0.937638C10.9615 0.765046 10.8324 0.625177 10.6731 0.625177C10.5138 0.625177 10.3847 0.765046 10.3847 0.937638V2.8127C10.3847 2.98529 10.5138 3.12516 10.6731 3.12516C10.8324 3.12516 10.9615 2.98529 10.9615 2.8127V0.937638ZM4.03842 2.8127C4.03842 2.98529 4.16753 3.12516 4.32685 3.12516C4.48616 3.12516 4.61527 2.98529 4.61527 2.8127V0.937638C4.61527 0.765046 4.48616 0.625177 4.32685 0.625177C4.16753 0.625177 4.03842 0.765046 4.03842 0.937638V2.8127Z" fill="black"/>
</svg>
