<svg width="30" height="30" viewBox="0 0 30 30" fill="none" xmlns="http://www.w3.org/2000/svg">
<path d="M0.00248987 14.4491C-0.0453224 16.742 0.596209 19.0054 1.86233 21.0107C3.12877 23.0161 4.97468 24.6922 7.21396 25.8702C9.45355 27.0479 12.007 27.6855 14.6164 27.7187H14.9287V30L21.5464 26.6418L14.9287 23.285V25.5253H14.6164C11.6932 25.4844 8.88199 24.5313 6.68524 22.8359C4.48864 21.1407 3.04999 18.814 2.62694 16.2722C2.20359 13.7301 2.82333 11.1388 4.37507 8.96185C4.54544 8.72094 4.60324 8.43163 4.53606 8.15458C4.46918 7.87724 4.28278 7.6334 4.01588 7.47438C3.74898 7.31511 3.42216 7.25288 3.1044 7.30048C2.75216 7.35446 2.44289 7.53767 2.25349 7.80411C0.830332 9.79843 0.0523253 12.0956 0.00235866 14.4492L0.00248987 14.4491Z" fill="#FF928A"/>
<path d="M15.0832 4.47709H15.3955C18.319 4.51804 21.1305 5.47211 23.3266 7.16807C25.5232 8.86403 26.9612 11.1913 27.3834 13.7339C27.8058 16.2763 27.1849 18.8678 25.6316 21.0442C25.4618 21.2849 25.4046 21.5739 25.4718 21.851C25.539 22.1278 25.7254 22.3714 25.992 22.5304C26.2586 22.6894 26.5848 22.7516 26.9025 22.7043C27.2545 22.6503 27.5637 22.4671 27.7531 22.2007C29.6157 19.5781 30.3556 16.4586 29.8402 13.4003C29.3249 10.342 27.5882 7.54464 24.941 5.50858C22.2935 3.47253 18.9082 2.3304 15.39 2.28684H15.0777V0L8.46484 3.35816L15.0826 6.71633L15.0832 4.47709Z" fill="#FF928A"/>
</svg>
